<svg xmlns="http://www.w3.org/2000/svg" viewBox="0 -0.5 67 50" shape-rendering="crispEdges">
  <path stroke="#bcbcbc" d="M0 0h1m14 0h1m1 0h1m16 0h1m2 0h4m10 0h1m3 0h2m3 0h3M1 1h14m3 0h1m19 0h1m10 0h1m2 0h2m7 0h1M1 2h14m4 0h1m28 0h2m2 0h3M1 3h14m5 0h1m28 0h1m3 0h3m10 0h1M1 4h14m6 0h1m15 0h1m16 0h2M1 5h14m7 0h6m6 0h1m2 0h1m13 0h1m3 0h2M1 6h14m7 0h6m6 0h1m3 0h1m10 0h1m1 0h2m4 0h1m8 0h1M1 7h14m7 0h6m6 0h1m3 0h2m9 0h1m1 0h2m2 0h4M1 8h14m7 0h6m20 0h2m1 0h1m1 0h3M1 9h14m7 0h6m20 0h2m2 0h2M1 10h14m7 0h6m19 0h3M1 11h14m13 0h1m19 0h2m1 0h2M1 12h14m14 0h1m19 0h1m1 0h1m14 0h1M1 13h14m15 0h1m3 0h1m31 0h1M1 14h14m16 0h1m2 0h2m9 0h4M0 15h1m14 0h1m16 0h1m1 0h2m7 0h2m4 0h1m2 4h2m-2 1h2m-2 1h2m1 0h3m-6 1h2m1 0h3m-6 1h2m1 0h3m1 0h3m-10 1h2m1 0h3m1 0h3m-10 1h2m1 0h3m1 0h3m1 0h3m-14 1h2m1 0h3m1 0h3m1 0h3m-14 1h2m1 0h3m1 0h3m1 0h3m-14 1h2m1 0h3m1 0h3m1 0h3m-14 1h2m1 0h3m1 0h3m1 0h3m-14 1h2m1 0h3m1 0h3m1 0h3m-14 1h2m1 0h3m1 0h3m1 0h3M0 35h6m2 0h6M0 36h6m2 0h6m3 0h16M0 39h2m2 0h6m2 0h4M0 40h2m2 0h6m2 0h4m1 0h16M0 43h6m2 0h6M0 44h6m2 0h6m3 0h16M0 47h2m2 0h6m2 0h4M0 48h2m2 0h6m2 0h4m1 0h16"/>
  <path stroke="#747474" d="M32 0h1m10 0h1m2 0h1M31 1h2m2 0h2m3 0h1m2 0h1m1 0h1m8 0h1m2 0h3m3 0h3M30 2h3m2 0h3m3 0h1m1 0h1m1 0h1m9 0h2m3 0h1m1 0h4M29 3h4m2 0h2m1 0h1m2 0h2m2 0h2m9 0h1m4 0h4M28 4h5m2 0h2m2 0h1m1 0h1m4 0h3m7 0h2m3 0h2M28 5h5m3 0h1m3 0h1m5 0h3m8 0h1m3 0h1M28 6h5m3 0h2m2 0h1m5 0h2m11 0h2M28 7h5m4 0h1m2 0h1m3 0h3m12 0h2m4 0h1M28 8h5m4 0h5m2 0h1m11 0h4m2 0h4M28 9h5m2 0h1m3 0h1m1 0h1m1 0h1m10 0h4m1 0h7m-38 1h5m2 0h1m1 0h1m4 0h2m14 0h2m1 0h5m-44 1h6m1 0h4m2 0h1m1 0h2m3 0h1m14 0h2m1 0h3m2 0h1m-45 1h8m1 0h3m2 0h1m1 0h1m4 0h1m3 0h2m8 0h4m1 0h1m1 0h2m-45 1h10m1 0h2m3 0h1m1 0h1m3 0h1m2 0h4m6 0h5m1 0h1m1 0h2m-46 1h12m1 0h1m4 0h4m2 0h2m10 0h6m1 0h1m1 0h2m-48 1h14m5 0h6m2 0h3m7 0h3m5 0h3m-32 2h16m-16 1h16m-16 1h16m-16 1h16m4 0h1m-21 1h16m4 0h1m-21 1h16m4 0h1m3 0h1m-25 1h16m4 0h1m3 0h1m-25 1h16m4 0h1m3 0h1m3 0h1m-29 1h16m4 0h1m3 0h1m3 0h1m-29 1h16m4 0h1m3 0h1m3 0h1m-29 1h16m4 0h1m3 0h1m3 0h1m-29 1h16m4 0h1m3 0h1m3 0h1m-29 1h16m4 0h1m3 0h1m3 0h1m-29 1h16m4 0h1m3 0h1m3 0h1m-29 1h16m4 0h1m3 0h1m3 0h1m-29 1h16M0 34h6m1 0h7m1 0h1m1 0h16M7 35h1m7 0h1m1 0h16M7 36h1m7 0h1M0 38h2m1 0h7m1 0h5m1 0h16M3 39h1m7 0h1m5 0h16M3 40h1m7 0h1M0 42h6m1 0h7m1 0h1m1 0h16M7 43h1m7 0h1m1 0h16M7 44h1m7 0h1M0 46h2m1 0h7m1 0h5m1 0h16M3 47h1m7 0h1m5 0h16M3 48h1m7 0h1"/>
  <path stroke="#000" d="M35 0h2m12 0h1m2 0h3m2 0h3m3 0h4M15 1h1m18 0h1m2 0h1m10 0h1m2 0h1m3 0h2m3 0h1m1 0h1m3 0h1M15 2h1m18 0h1m3 0h1m8 0h1m3 0h1m7 0h1m1 0h1m4 0h1M15 3h1m18 0h1m2 0h1m1 0h2m2 0h2m2 0h2m2 0h1m5 0h1m2 0h1m4 0h1M15 4h1m18 0h1m3 0h1m1 0h1m1 0h1m2 0h1m3 0h1m1 0h1m1 0h1m6 0h1M15 5h1m19 0h1m2 0h2m1 0h1m2 0h1m4 0h1m2 0h3m3 0h3m5 0h1M15 6h1m19 0h1m3 0h1m1 0h1m2 0h2m2 0h1m4 0h4m1 0h1m2 0h1m2 0h2M15 7h1m19 0h2m4 0h1m6 0h1m4 0h2m6 0h1m4 0h1M15 8h1m18 0h3m5 0h2m1 0h2m5 0h1m7 0h2m4 0h1M15 9h1m18 0h1m1 0h2m4 0h1m1 0h4m3 0h1m6 0h1m7 0h1m-52 1h1m18 0h1m1 0h1m4 0h1m2 0h3m4 0h7m2 0h1m5 0h1m-52 1h1m18 0h1m1 0h1m4 0h1m1 0h5m5 0h1m5 0h1m3 0h2m1 0h1m-52 1h1m18 0h1m1 0h1m4 0h1m1 0h3m2 0h1m3 0h4m4 0h1m1 0h1m2 0h1m-51 1h1m19 0h1m1 0h1m3 0h1m1 0h2m4 0h1m1 0h1m8 0h1m1 0h1m2 0h1m-51 1h1m20 0h1m5 0h1m6 0h1m1 0h4m6 0h1m1 0h1m2 0h1M1 15h14m21 0h1m11 0h1m2 0h1m6 0h5m3 0h1M0 17h16M0 18h16m36 0h14M0 19h16m38 0h12M0 20h16m39 0h11M0 21h16m42 0h8M0 22h16m43 0h7M0 23h16m46 0h4M0 24h16m47 0h3M0 25h16M0 26h16M0 27h16M0 28h16M0 29h16M0 30h16M0 31h16M0 32h16M6 34h1m7 0h1m-9 1h1m7 0h1m-9 1h1m7 0h1M0 37h16M2 38h1m7 0h1m-9 1h1m7 0h1m-9 1h1m7 0h1M0 41h16M6 42h1m7 0h1m-9 1h1m7 0h1m-9 1h1m7 0h1M0 45h16M2 46h1m7 0h1m-9 1h1m7 0h1m-9 1h1m7 0h1M0 49h16"/>
  <path stroke="#d82800" d="M17 17h16m-16 1h16m-16 1h16m-16 1h16m-16 1h16m-16 1h16m-16 1h16m-16 1h16m-16 1h16m-16 1h16m-16 1h16m-16 1h16m-16 1h16m-16 1h16m-16 1h16m-16 1h16"/>
</svg>
