<svg xmlns="http://www.w3.org/2000/svg"  shape-rendering="crispEdges" viewBox="0 -0.5 152 84" >
  <path stroke="#c84c0c" d="M27 0h2m7 0h2m84 0h1m26 0h1M26 1h4m5 0h4m6 0h1m8 0h1M25 2h6m3 0h6m4 0h3m6 0h3M26 3h5m4 0h5m3 0h5m4 0h5m26 0h1m8 0h1m7 0h1m8 0h1m10 0h1M26 4h5m4 0h5m3 0h5m4 0h5m18 0h1m75 0h1M23 5h1m2 0h4m5 0h4m4 0h6m3 0h6m22 0h1m8 0h1m7 0h1m8 0h1m5 0h1M22 6h2m2 0h5m4 0h5m3 0h6m3 0h6m1 0h1M22 7h2m2 0h5m4 0h5m3 0h5m4 0h5m2 0h2m58 0h1M22 8h2m1 0h7m2 0h7m1 0h6m3 0h6m2 0h1m1 0h3m9 0h1m36 0h1M19 9h2m1 0h2m1 0h7m2 0h7m1 0h5m4 0h5m3 0h5m50 0h1m-97 1h6m1 0h6m3 0h6m2 0h5m4 0h5m3 0h6m13 0h1m8 0h1m7 0h1m8 0h1m-87 1h3m1 0h2m2 0h5m4 0h5m3 0h5m4 0h5m3 0h5m6 0h1m-54 1h3m1 0h1m3 0h5m4 0h5m3 0h6m3 0h6m2 0h5m48 0h1m-96 1h3m1 0h1m2 0h6m3 0h6m6 0h3m6 0h3m2 0h4m10 0h1m-58 1h6m3 0h4m5 0h4m3 0h4m1 0h1m3 0h4m1 0h1m5 0h2m6 0h1m5 0h1m8 0h1m7 0h1m8 0h1m-86 1h6m3 0h1m2 0h2m4 0h1m2 0h2m2 0h3m2 0h2m2 0h3m2 0h2m5 0h1m-49 2h1m1 0h4m1 0h3m4 0h2m3 0h3m5 0h2m4 0h2m2 0h6m4 0h2m9 0h1m36 0h1m-99 1h1m4 0h4m1 0h5m2 0h3m2 0h4m3 0h5m6 0h7m3 0h3m49 0h1M2 19h1m14 0h3m2 0h5m2 0h3m2 0h4m3 0h5m2 0h1m3 0h1m2 0h4m3 0h3m13 0h1m8 0h1m7 0h1m8 0h1M6 20h1m10 0h3m2 0h5m2 0h4m2 0h3m3 0h6m1 0h1m4 0h2m1 0h3m3 0h3m6 0h1M9 21h1m7 0h3m2 0h5m2 0h4m2 0h3m2 0h7m1 0h1m3 0h3m1 0h3m3 0h3m48 0h1M1 22h1m11 0h1m3 0h3m2 0h5m2 0h4m1 0h4m2 0h9m3 0h3m1 0h3m3 0h1m11 0h1m-57 1h1m3 0h5m3 0h3m1 0h4m2 0h5m7 0h3m1 0h3m11 0h1m5 0h1m8 0h1m7 0h1m8 0h1M4 24h1m17 0h5m4 0h2m1 0h4m2 0h4m1 0h3m4 0h3m1 0h3m-48 1h1m10 0h5m4 0h2m1 0h3m3 0h4m1 0h4m3 0h3m1 0h2m17 0h1m38 0h1M7 26h1m14 0h1m1 0h2m5 0h2m1 0h3m3 0h4m1 0h4m3 0h3m1 0h2m11 0h1m10 0h1m8 0h1m7 0h1m8 0h1M2 27h1m28 0h2m2 0h1m5 0h2m2 0h3m5 0h2m1 0h2m-44 1h1m16 0h2m2 0h1m6 0h1m2 0h3m5 0h2m1 0h2m61 0h1m31 0h1M11 29h1m19 0h2m1 0h1m2 0h5m3 0h3m5 0h2m1 0h1m14 0h1M0 30h1m5 0h1m24 0h2m1 0h1m2 0h4m4 0h3m5 0h1m25 0h1m8 0h1m7 0h1m8 0h1m7 0h1m-83 1h2m1 0h1m1 0h6m3 0h2m73 0h1M3 32h1m5 0h1m26 0h1m1 0h2m111 0h1M2 34h2m32 0h1m2 0h4m1 0h1m12 0h3m15 0h1m38 0h1m12 0h1m16 0h1M1 35h4m16 0h1m1 0h1m14 0h2m2 0h2m12 0h4m9 0h1m10 0h1m8 0h1m7 0h1m8 0h1m20 0h1m4 0h1m11 0h1m4 0h1M1 36h1m1 0h2m2 0h3m9 0h1m1 0h5m11 0h2m4 0h2m10 0h6m66 0h2m3 0h1m11 0h2m3 0h1M0 37h1m1 0h3m2 0h5m7 0h2m1 0h5m2 0h1m7 0h2m4 0h2m9 0h3m3 0h2m57 0h2m6 0h1m2 0h1m5 0h2m6 0h1m2 0h1M0 38h1m1 0h3m2 0h5m6 0h10m6 0h6m1 0h4m8 0h4m3 0h3m8 0h1m48 0h1m2 0h1m4 0h1m5 0h1m2 0h1m2 0h1m4 0h1m5 0h1M0 39h1m1 0h2m2 0h7m5 0h5m1 0h3m1 0h1m5 0h1m1 0h2m1 0h1m5 0h1m7 0h2m7 0h1m16 0h1m8 0h1m7 0h1m8 0h1m7 0h1m6 0h1m4 0h1m2 0h1m5 0h1m2 0h1m4 0h1m2 0h1m5 0h1M0 40h4m2 0h2m1 0h4m4 0h10m7 0h6m1 0h6m6 0h2m7 0h1M0 41h4m2 0h2m1 0h2m6 0h2m1 0h8m6 0h6m1 0h4m1 0h2m5 0h2m7 0h1M1 42h3m2 0h2m1 0h2m1 0h1m5 0h7m1 0h2m2 0h1m3 0h6m1 0h4m1 0h2m5 0h4m3 0h3m8 0h1m11 0h1m8 0h1m7 0h1m8 0h1m33 0h1m7 0h1M1 43h3m2 0h2m2 0h1m1 0h1m4 0h4m1 0h6m6 0h6m3 0h2m1 0h2m5 0h4m3 0h3m48 0h1m3 0h1M1 44h3m2 0h2m2 0h1m1 0h1m4 0h9m8 0h6m1 0h1m11 0h5m2 0h3m13 0h1m8 0h1m7 0h1m8 0h1m33 0h1m7 0h1M0 45h4m1 0h4m1 0h1m6 0h2m1 0h7m1 0h1m5 0h6m3 0h3m7 0h10M0 46h4m1 0h6m2 0h1m4 0h6m10 0h1m1 0h2m1 0h1m1 0h3M0 47h9m3 0h2m6 0h2m1 0h1m3 0h1m6 0h6m4 0h3m4 0h15m44 0h1M1 48h5m1 0h3m33 0h4m4 0h15m10 0h1m2 0h1m5 0h1m2 0h1m4 0h1m2 0h1m5 0h1m2 0h1m30 0h1m2 0h1m4 0h1m2 0h1M1 51h1m9 0h1m93 0h11m3 0h16M1 52h3m7 0h2m61 0h5m40 0h1m14 0h1M1 53h4m6 0h4m6 0h1m43 0h2m1 0h5m1 0h5m1 0h4m1 0h1m33 0h1m14 0h1M2 54h3m6 0h1m1 0h3m1 0h1m3 0h1m43 0h2m1 0h6m6 0h4m1 0h2m32 0h1m2 0h1m11 0h1M4 55h3m6 0h3m1 0h6m7 0h3m31 0h3m1 0h1m5 0h4m5 0h1m1 0h2m18 0h11m3 0h1m2 0h1m11 0h1M5 56h3m4 0h4m1 0h7m4 0h5m6 0h1m22 0h5m2 0h5m1 0h2m1 0h5m2 0h4m30 0h1m2 0h1m3 0h1m7 0h1M5 57h5m2 0h1m1 0h2m1 0h4m1 0h3m2 0h1m1 0h4m1 0h2m2 0h1m25 0h2m2 0h6m1 0h2m1 0h6m2 0h2m31 0h1m2 0h1m3 0h1m7 0h1M6 58h5m1 0h1m1 0h2m1 0h4m1 0h6m1 0h3m2 0h2m1 0h2m25 0h2m9 0h2m9 0h2m31 0h1m2 0h1m3 0h1m3 0h1m3 0h1M7 59h6m1 0h2m1 0h3m3 0h4m3 0h2m3 0h4m14 0h4m7 0h2m2 0h2m3 0h2m1 0h1m1 0h1m3 0h2m2 0h2m7 0h4m6 0h11m3 0h1m2 0h1m3 0h1m3 0h1m3 0h1M7 60h2m1 0h2m1 0h3m1 0h3m3 0h4m3 0h2m3 0h3m14 0h6m6 0h2m2 0h7m1 0h1m1 0h6m2 0h2m6 0h6m19 0h1m2 0h1m3 0h1m3 0h1m3 0h1M8 61h1m1 0h3m1 0h2m1 0h3m3 0h4m3 0h2m2 0h4m13 0h6m7 0h3m8 0h3m7 0h3m5 0h6m20 0h1m2 0h1m3 0h1m3 0h1m3 0h1M11 62h2m1 0h2m1 0h4m1 0h6m1 0h3m2 0h4m3 0h1m9 0h6m7 0h3m1 0h2m12 0h2m1 0h3m5 0h6m20 0h1m2 0h1m3 0h1m3 0h1m3 0h1M12 63h1m1 0h2m1 0h15m2 0h1m1 0h3m2 0h1m9 0h6m5 0h5m1 0h1m1 0h2m8 0h2m1 0h1m1 0h5m3 0h6m6 0h11m3 0h1m2 0h1m3 0h1m3 0h1m3 0h1M14 64h2m1 0h3m2 0h1m4 0h5m2 0h1m1 0h1m1 0h1m2 0h1m9 0h5m6 0h5m3 0h2m8 0h2m3 0h2m6 0h5m21 0h1m2 0h1m3 0h1m3 0h1m3 0h1M13 65h3m1 0h1m4 0h1m6 0h1m1 0h2m1 0h1m1 0h1m1 0h1m2 0h1m10 0h1m8 0h6m4 0h1m8 0h1m4 0h1m1 0h3m4 0h1m24 0h1m2 0h1m3 0h1m3 0h1m3 0h1M13 66h3m1 0h1m13 0h1m2 0h1m1 0h2m3 0h1m18 0h6m5 0h1m8 0h1m6 0h3m29 0h16M12 68h2m1 0h1m1 0h7m1 0h7m2 0h1m1 0h2m2 0h1m7 0h1m2 0h8m1 0h6m20 0h1m1 0h1m1 0h2m1 0h8m-89 1h2m1 0h1m1 0h1m1 0h3m1 0h1m1 0h1m1 0h3m1 0h1m2 0h1m1 0h2m2 0h1m6 0h1m12 0h6m20 0h1m1 0h1m1 0h2m-80 1h2m1 0h1m1 0h7m1 0h7m2 0h1m2 0h1m2 0h1m4 0h3m4 0h5m4 0h5m7 0h6m7 0h1m1 0h1m2 0h1m2 0h5m-89 1h1m1 0h2m1 0h1m1 0h7m1 0h7m2 0h1m2 0h1m2 0h1m3 0h1m1 0h1m5 0h5m14 0h10m10 0h1m2 0h5m-89 1h1m1 0h2m1 0h1m1 0h7m1 0h7m2 0h1m2 0h2m4 0h1m1 0h1m7 0h3m4 0h1m10 0h2m6 0h2m9 0h2m3 0h3m-88 1h1m1 0h2m1 0h1m1 0h7m1 0h7m2 0h1m2 0h3m2 0h2m10 0h1m6 0h5m2 0h1m1 0h2m1 0h1m4 0h1m1 0h2m1 0h1m2 0h4m1 0h1m4 0h1m-87 1h1m1 0h2m1 0h1m1 0h7m1 0h7m2 0h1m2 0h1m1 0h1m1 0h2m1 0h1m9 0h1m6 0h5m2 0h3m1 0h2m4 0h2m1 0h3m2 0h4m1 0h1m4 0h1m-87 1h1m1 0h2m1 0h1m1 0h7m1 0h7m2 0h1m2 0h1m1 0h1m1 0h1m2 0h1m7 0h4m12 0h3m1 0h8m1 0h3m7 0h1m2 0h4M9 76h2m1 0h1m2 0h1m1 0h7m1 0h7m2 0h1m1 0h2m1 0h1m1 0h1m1 0h1m24 0h3m1 0h2m4 0h2m1 0h3m6 0h2M9 77h1m2 0h1m1 0h2m1 0h7m1 0h7m2 0h1m1 0h1m2 0h1m12 0h6m3 0h5m2 0h4m3 0h2m3 0h4m2 0h4m1 0h1m2 0h6M9 78h1m1 0h2m1 0h2m1 0h7m1 0h7m2 0h1m1 0h1m1 0h2m2 0h1m9 0h6m3 0h5m2 0h4m1 0h1m1 0h2m1 0h1m1 0h4m2 0h4m1 0h1m2 0h6M9 79h1m1 0h2m1 0h2m1 0h7m1 0h7m2 0h3m1 0h1m3 0h1m9 0h6m10 0h2m5 0h2m5 0h2m7 0h1m2 0h6M9 80h1m1 0h5m1 0h7m1 0h7m2 0h6m12 0h6m2 0h1m7 0h1m1 0h2m1 0h2m2 0h2m1 0h2m1 0h1m6 0h2m2 0h6M8 81h2m1 0h1m1 0h3m1 0h1m1 0h3m1 0h1m1 0h1m1 0h3m1 0h1m2 0h1m1 0h3m2 0h1m10 0h6m2 0h6m4 0h2m2 0h1m2 0h1m2 0h2m4 0h6m2 0h6M8 82h4m1 0h3m1 0h7m1 0h7m2 0h2m5 0h1m10 0h6m2 0h6m5 0h1m8 0h1m5 0h6m2 0h6M8 83h2m2 0h2m1 0h1m18 0h5m2 0h1m1 0h1m27 0h1m8 0h1" />
  <path stroke="#000" d="M29 0h2m7 0h2m37 0h2m2 0h3m2 0h2m2 0h3m1 0h2m2 0h3m2 0h2m2 0h4M30 1h2m7 0h2m5 0h1m8 0h1m19 0h9m1 0h16m1 0h11M31 2h1m8 0h1m6 0h1m8 0h1m16 0h4m2 0h3m3 0h1m2 0h3m2 0h1m2 0h3m3 0h1m2 0h3m3 0h5M31 3h2m7 0h2m6 0h1m8 0h1m13 0h4m39 0h1M23 4h2m6 0h2m7 0h3m5 0h1m2 0h1m5 0h1m14 0h1m49 0h1M24 5h1m5 0h3m6 0h3m7 0h1m8 0h1m12 0h2m49 0h2M24 6h1m6 0h2m7 0h2m7 0h1m8 0h1m11 0h2m42 0h2m6 0h1M24 7h2m5 0h1m2 0h1m5 0h1m7 0h2m7 0h2m2 0h3m6 0h1m45 0h1M20 8h2m2 0h1m23 0h1m8 0h1m2 0h1m3 0h1m5 0h1m46 0h1m32 0h1M21 9h1m2 0h1m22 0h2m7 0h2m6 0h1m4 0h2m46 0h1m31 0h2M24 10h1m6 0h1m8 0h1m6 0h2m7 0h2m7 0h1m3 0h1m47 0h1m-97 1h1m2 0h1m6 0h2m7 0h2m6 0h2m7 0h2m6 0h1m-45 1h1m1 0h3m5 0h2m1 0h1m5 0h3m6 0h1m1 0h1m6 0h1m6 0h1m-45 1h1m1 0h2m6 0h2m7 0h2m2 0h2m3 0h1m3 0h2m3 0h1m5 0h2m-43 1h3m4 0h2m2 0h1m4 0h2m5 0h1m1 0h2m5 0h1m1 0h2m1 0h2m2 0h2m-43 1h3m1 0h2m2 0h1m2 0h1m1 0h2m2 0h1m4 0h2m2 0h1m4 0h2m2 0h1m1 0h3m1 0h1m-40 2h3m3 0h2m4 0h1m1 0h2m3 0h2m1 0h1m10 0h3m3 0h3m3 0h1m46 0h1m-91 1h1m4 0h1m5 0h2m6 0h3m10 0h2m4 0h2m2 0h2m46 0h1m-98 1h1m6 0h1m4 0h1m5 0h2m6 0h2m1 0h1m3 0h2m4 0h2m4 0h2m2 0h1m47 0h1m-98 1h1m6 0h1m10 0h2m7 0h1m1 0h1m5 0h1m3 0h2m4 0h1m-46 1h1m6 0h1m10 0h1m8 0h1m1 0h1m5 0h1m3 0h2m4 0h1m53 0h1M20 22h1m6 0h1m10 0h1m10 0h1m5 0h1m3 0h2m2 0h2m54 0h1M17 23h1m1 0h2m6 0h2m9 0h1m8 0h2m6 0h1m3 0h4m56 0h1m31 0h1M18 24h3m6 0h3m8 0h1m9 0h1m6 0h1m3 0h2m59 0h1m29 0h1M20 25h2m5 0h3m7 0h2m10 0h1m5 0h1m2 0h2m56 0h1m3 0h1M21 26h1m1 0h1m2 0h4m7 0h2m10 0h1m5 0h1m2 0h2m56 0h1m3 0h1m29 0h1M22 27h8m6 0h3m1 0h1m2 0h1m4 0h2m1 0h1m3 0h1m2 0h2m56 0h1m3 0h1m28 0h1M25 28h5m6 0h1m3 0h2m1 0h1m4 0h1m2 0h1m3 0h1m2 0h2m56 0h1m4 0h2m26 0h1M29 29h1m5 0h1m6 0h2m4 0h1m2 0h1m3 0h1m1 0h2m57 0h1m5 0h1m26 0h1M30 30h1m4 0h1m5 0h3m4 0h1m2 0h1m2 0h4m58 0h1m5 0h3m21 0h3M30 31h1m11 0h3m2 0h3m1 0h2m63 0h2m4 0h4m21 0h2M31 32h2m1 0h1m6 0h1m1 0h2m2 0h2m68 0h1m7 0h2m17 0h3M4 34h1m32 0h1m7 0h1m70 0h1m13 0h1m16 0h1M5 35h1m18 0h3m9 0h2m2 0h2m2 0h2m70 0h1m7 0h1m5 0h1m10 0h1m5 0h1M5 36h2m3 0h2m14 0h4m10 0h2m74 0h1m7 0h1m16 0h1M5 37h1m6 0h1m8 0h1m5 0h2m1 0h1m28 0h1m56 0h1M5 38h1m6 0h2m14 0h3m9 0h1m4 0h1m13 0h1m56 0h1M4 39h1m8 0h1m9 0h1m3 0h1m1 0h3m3 0h1m2 0h1m1 0h5m1 0h1m14 0h1m54 0h1M4 40h1m3 0h1m4 0h2m12 0h4m9 0h1m7 0h1m12 0h1m54 0h2M4 41h1m3 0h1m2 0h4m4 0h1m8 0h4m8 0h1m4 0h1m2 0h1m6 0h2m2 0h3m55 0h1M4 42h1m3 0h1m2 0h1m1 0h2m10 0h1m2 0h2m1 0h1m8 0h1m4 0h1m2 0h1m10 0h1m68 0h1m1 0h1M4 43h1m3 0h2m1 0h1m1 0h2m6 0h1m6 0h4m8 0h1m4 0h1m2 0h1m3 0h1m6 0h1m4 0h1m1 0h1m61 0h1M4 44h1m3 0h2m1 0h1m1 0h2m11 0h5m9 0h1m5 0h1m1 0h1m3 0h1m5 0h2m4 0h1m1 0h1m55 0h1m5 0h1M4 45h1m4 0h1m1 0h4m4 0h1m7 0h1m1 0h2m9 0h1m5 0h1m1 0h1m3 0h1m11 0h1m1 0h1m55 0h1M4 46h1m6 0h2m1 0h1m9 0h6m5 0h1m2 0h1m1 0h1m3 0h3m1 0h1m17 0h1m5 0h1m41 0h1M9 47h3m13 0h2m13 0h1m2 0h1m22 0h1m4 0h2m41 0h2M6 48h1m3 0h6m5 0h1m5 0h6m2 0h8m5 0h1m17 0h1M0 49h14m6 0h11m3 0h16m1 0h16m-49 2h4m4 0h6m8 0h1m62 0h2m12 0h1m18 0h16M13 52h3m1 0h6m2 0h8m6 0h2m62 0h1m13 0h1m2 0h14m2 0h16M15 53h1m1 0h4m1 0h11m1 0h2m2 0h3m32 0h1m5 0h1m6 0h2m15 0h1m13 0h1m4 0h12m2 0h16M1 54h1m10 0h1m5 0h3m1 0h11m1 0h8m32 0h6m7 0h1m15 0h1m13 0h1m5 0h11m2 0h16M11 55h2m10 0h7m4 0h8m45 0h3m13 0h2m12 0h1m8 0h8m2 0h16M11 56h1m12 0h4m6 0h5m1 0h2m32 0h1m8 0h1m5 0h2m12 0h1m13 0h1m9 0h7m2 0h16M4 57h1m6 0h1m1 0h1m7 0h1m3 0h2m1 0h1m7 0h2m1 0h3m20 0h1m11 0h1m10 0h1m2 0h1m1 0h1m12 0h1m13 0h1m12 0h4m2 0h16M4 58h2m5 0h1m1 0h1m7 0h1m6 0h1m3 0h1m3 0h1m2 0h3m20 0h1m5 0h7m3 0h6m1 0h1m2 0h1m1 0h1m12 0h1m13 0h1m13 0h3m2 0h16M5 59h2m6 0h1m6 0h3m4 0h3m2 0h1m1 0h1m4 0h3m20 0h1m7 0h3m2 0h1m3 0h3m3 0h1m2 0h1m1 0h1m12 0h2m12 0h1m18 0h16M6 60h1m2 0h1m2 0h1m7 0h1m1 0h1m4 0h1m1 0h1m2 0h1m1 0h1m3 0h4m20 0h1m12 0h1m9 0h1m2 0h1m1 0h1m12 0h1m13 0h1m18 0h16M6 61h2m1 0h1m3 0h1m6 0h1m1 0h1m4 0h1m1 0h1m2 0h1m5 0h4m16 0h1m3 0h1m5 0h7m3 0h6m4 0h1m1 0h1m9 0h1m2 0h1m13 0h1m18 0h16M7 62h4m2 0h1m7 0h1m6 0h1m3 0h1m5 0h3m17 0h1m3 0h1m25 0h1m1 0h1m9 0h1m2 0h1m13 0h1m18 0h16M7 63h5m1 0h1m18 0h1m2 0h1m3 0h2m17 0h1m13 0h8m10 0h1m9 0h1m2 0h2m12 0h1m18 0h16M10 64h4m6 0h2m1 0h4m5 0h1m2 0h1m1 0h1m1 0h2m16 0h2m10 0h1m2 0h8m2 0h1m6 0h2m8 0h2m2 0h1m13 0h1m18 0h16M10 65h3m5 0h4m1 0h6m1 0h1m4 0h1m1 0h1m1 0h2m15 0h2m11 0h2m1 0h8m1 0h2m7 0h2m6 0h2m3 0h1m13 0h1m18 0h16M9 66h4m5 0h13m1 0h1m2 0h1m2 0h3m12 0h4m11 0h3m1 0h8m1 0h3m6 0h3m2 0h4m4 0h1m13 0h1m18 0h16M10 68h2m2 0h1m20 0h1m2 0h2m1 0h1m7 0h1m39 0h1m2 0h1m-83 1h2m2 0h1m3 0h1m3 0h1m1 0h1m1 0h1m3 0h1m1 0h1m2 0h1m2 0h2m1 0h1m6 0h2m1 0h8m30 0h1m2 0h9m-91 1h2m2 0h1m9 0h1m7 0h1m2 0h2m1 0h2m1 0h1m6 0h1m8 0h1m2 0h1m7 0h1m10 0h2m8 0h2m1 0h1m6 0h1m-89 1h1m2 0h1m9 0h1m7 0h1m2 0h2m1 0h2m1 0h1m3 0h1m1 0h1m9 0h1m3 0h5m2 0h1m12 0h1m3 0h5m2 0h1m6 0h1m-89 1h1m2 0h1m9 0h1m7 0h1m2 0h2m2 0h3m2 0h1m1 0h1m9 0h1m11 0h1m12 0h1m10 0h1m5 0h1m-88 1h1m2 0h1m9 0h1m7 0h1m2 0h2m3 0h2m2 0h3m8 0h1m4 0h1m13 0h4m1 0h1m2 0h1m7 0h1m1 0h1m4 0h1m-87 1h1m2 0h1m9 0h1m7 0h1m2 0h2m1 0h1m1 0h1m2 0h1m1 0h1m9 0h1m4 0h1m13 0h4m2 0h1m9 0h1m1 0h1m4 0h1m-87 1h1m2 0h1m9 0h1m7 0h1m2 0h2m1 0h1m1 0h1m1 0h2m1 0h1m10 0h2m3 0h5m14 0h1m4 0h5m2 0h1m5 0h2m-89 1h1m1 0h2m9 0h1m7 0h1m2 0h1m2 0h1m1 0h1m1 0h1m1 0h1m15 0h1m19 0h1m11 0h1m-83 1h2m1 0h1m10 0h1m7 0h1m2 0h1m1 0h2m1 0h5m13 0h1m1 0h1m11 0h1m1 0h1m2 0h1m1 0h1m10 0h1m1 0h1m7 0h1m-91 1h1m2 0h1m10 0h1m7 0h1m2 0h1m1 0h1m2 0h2m1 0h1m14 0h1m1 0h1m13 0h1m2 0h1m12 0h1m1 0h1m7 0h1m-91 1h1m2 0h1m10 0h1m7 0h1m4 0h1m1 0h3m1 0h1m14 0h1m2 0h5m19 0h5m2 0h1m7 0h1m-91 1h1m13 0h1m7 0h1m7 0h4m14 0h1m13 0h1m6 0h1m12 0h1m7 0h1m-91 1h1m1 0h1m5 0h1m3 0h1m1 0h1m1 0h1m3 0h1m1 0h1m2 0h1m3 0h2m1 0h3m13 0h1m10 0h1m2 0h2m1 0h2m1 0h2m2 0h1m9 0h1m7 0h1m-89 1h1m11 0h1m7 0h1m3 0h5m1 0h3m13 0h2m9 0h2m1 0h8m1 0h2m9 0h1m7 0h1m-83 1h7m1 0h7m6 0h2m1 0h1m1 0h2m5 0h16m1 0h3m1 0h8m1 0h3m1 0h16" />
  <path stroke="#2038ec" d="M119 0h3m1 0h4m17 0h5m1 0h2m-33 1h6m20 0h1m2 0h4M77 2h2m3 0h2m2 0h2m3 0h2m1 0h2m3 0h2m2 0h2m3 0h3m8 0h5m24 0h4M75 3h8m2 0h7m1 0h7m2 0h7m1 0h4m5 0h1m1 0h1m28 0h2M73 4h2m1 0h8m1 0h16m1 0h12m5 0h3m28 0h1M73 5h7m1 0h3m1 0h4m1 0h7m1 0h3m1 0h4m1 0h5m1 0h1m5 0h3m28 0h2M72 6h12m1 0h16m1 0h12m5 0h3m28 0h2M71 7h13m1 0h16m1 0h14m4 0h2m29 0h1M71 8h2m1 0h10m1 0h16m1 0h8m1 0h6m2 0h1m31 0h1M71 9h13m1 0h16m1 0h12m1 0h2m2 0h1m31 0h1m-82 1h8m1 0h5m1 0h2m1 0h7m1 0h5m1 0h2m1 0h12m2 0h1m-51 1h2m1 0h12m1 0h16m1 0h15m-48 1h15m1 0h16m1 0h11m1 0h3m-48 1h5m1 0h9m1 0h16m1 0h14m-47 1h1m1 0h5m1 0h7m2 0h7m1 0h7m2 0h13m-47 1h15m1 0h16m1 0h14m-45 2h2m1 0h10m1 0h16m1 0h8m1 0h6m-46 1h13m1 0h16m1 0h12m1 0h2m-47 1h8m1 0h5m1 0h2m1 0h7m1 0h5m1 0h2m1 0h12m-48 1h2m1 0h12m1 0h16m1 0h15m-48 1h15m1 0h16m1 0h11m1 0h3m-48 1h5m1 0h9m1 0h16m1 0h14m-47 1h1m1 0h5m1 0h7m2 0h7m1 0h7m2 0h13m-47 1h15m1 0h16m1 0h14m3 0h1m31 0h1m-84 1h7m1 0h8m1 0h16m1 0h12m1 0h1m3 0h1m31 0h1m-84 1h1m1 0h10m1 0h3m1 0h4m1 0h7m1 0h3m1 0h4m1 0h9m3 0h1m31 0h1m-84 1h16m1 0h16m1 0h14m3 0h1m30 0h2m-84 1h16m1 0h16m1 0h14m4 0h1m29 0h1m-82 1h2m1 0h12m1 0h16m1 0h14m3 0h3m28 0h2m-83 1h10m1 0h4m1 0h3m1 0h7m1 0h4m1 0h3m1 0h7m1 0h2m3 0h3m27 0h3m-83 1h15m1 0h16m1 0h14m3 0h1m1 0h1m27 0h3m-83 1h15m1 0h16m1 0h15m2 0h6m22 0h4M47 34h1m20 0h7m1 0h8m1 0h16m1 0h12m1 0h1m3 0h1m1 0h6m1 0h2m1 0h4m1 0h1m1 0h6m1 0h2m1 0h4M47 35h1m12 0h1m7 0h1m1 0h10m1 0h3m1 0h4m1 0h7m1 0h3m1 0h4m1 0h9m3 0h1m1 0h3m1 0h2m1 0h2m1 0h1m1 0h2m1 0h1m1 0h3m1 0h2m1 0h2m1 0h1m1 0h2M39 36h1m2 0h1m4 0h1m13 0h1m6 0h16m1 0h16m1 0h14m5 0h2m2 0h2m2 0h3m1 0h1m4 0h2m2 0h2m2 0h3m1 0h1M39 37h4m4 0h1m9 0h2m3 0h1m5 0h16m1 0h16m1 0h14m5 0h2m1 0h1m1 0h1m2 0h1m1 0h1m6 0h2m1 0h1m1 0h1m2 0h1m1 0h1M47 38h1m9 0h2m4 0h1m5 0h2m1 0h12m1 0h16m1 0h14m6 0h1m3 0h1m2 0h1m1 0h2m6 0h1m3 0h1m2 0h1m1 0h2M47 39h1m7 0h6m2 0h1m5 0h10m1 0h4m1 0h3m1 0h7m1 0h4m1 0h3m1 0h7m1 0h2m15 0h1m16 0h1M47 40h1m7 0h6m2 0h1m5 0h15m1 0h16m1 0h14m6 0h1m5 0h1m2 0h3m5 0h1m5 0h1m2 0h3m-94 1h2m4 0h1m5 0h15m1 0h16m1 0h15m3 0h1m1 0h1m2 0h1m1 0h2m1 0h2m1 0h1m3 0h1m1 0h1m2 0h1m1 0h2m1 0h2m1 0h1M51 42h2m4 0h2m4 0h3m3 0h2m1 0h11m2 0h7m1 0h7m2 0h7m1 0h7m2 0h2m1 0h2m1 0h1m1 0h1m1 0h1m1 0h1m1 0h1m2 0h7m1 0h7M41 43h2m8 0h1m5 0h2m4 0h1m1 0h1m4 0h14m1 0h16m1 0h9m1 0h3m1 0h1m2 0h7m1 0h1m1 0h3m1 0h2m1 0h16M42 44h4m1 0h1m3 0h1m11 0h1m1 0h1m6 0h4m1 0h7m2 0h7m1 0h7m2 0h13m3 0h3m1 0h1m1 0h3m1 0h6m2 0h7m1 0h7M41 45h2m4 0h1m3 0h1m11 0h1m1 0h1m7 0h11m1 0h16m1 0h12m5 0h3m1 0h1m1 0h10m1 0h16M47 46h1m3 0h15m7 0h11m1 0h16m1 0h12m5 0h2m1 0h2m1 0h10m1 0h16M22 47h1m1 0h1m22 0h1m25 0h11m1 0h16m1 0h8m1 0h3m5 0h8m1 0h6m2 0h16M22 48h5m20 0h1m26 0h2m1 0h2m1 0h1m1 0h2m2 0h2m1 0h1m1 0h2m1 0h2m1 0h1m1 0h2m2 0h2m1 0h1m1 0h5m6 0h16m2 0h2m1 0h1m1 0h2m1 0h2m1 0h1m1 0h2m-76 1h2m1 0h1m5 0h2m1 0h1m4 0h2m1 0h1m5 0h2m1 0h1m13 0h16m1 0h2m1 0h1m4 0h2m1 0h1M5 51h2m66 0h6M4 52h4m57 0h2m1 0h6m5 0h5m1 0h2m17 0h12m-52 1h1m39 0h12m-52 1h1m39 0h12M1 55h3m58 0h2m5 0h5m4 0h5M0 56h5m56 0h1m6 0h1m8 0h1m26 0h12M2 57h2m57 0h1m1 0h1m2 0h1m10 0h1m11 0h1m14 0h12m-55 1h1m1 0h1m2 0h1m10 0h1m11 0h1m14 0h12m-55 1h1m1 0h1m2 0h1m10 0h1m11 0h1m-29 1h1m1 0h1m2 0h1m10 0h1m11 0h1m14 0h12m-55 1h1m1 0h1m25 0h1m14 0h12m-55 1h1m1 0h1m25 0h1m14 0h12m-55 1h1M5 64h5m51 0h1m25 0h2m15 0h12M4 65h6m50 0h1m25 0h1m17 0h12M6 66h3m50 0h1m26 0h1m17 0h12m-92 2h1m7 0h1m26 0h1m25 0h1m1 0h1m-29 1h1m13 0h6m4 0h1m1 0h1m1 0h1m-29 1h1m11 0h2m10 0h1m1 0h1m1 0h1m-40 1h2m9 0h2m9 0h1m12 0h1m6 0h1m-44 1h2m10 0h1m1 0h5m4 0h1m2 0h6m4 0h1m1 0h5m-31 1h1m9 0h1m2 0h1m12 0h1m-27 1h1m11 0h1m13 0h1m-27 1h2m10 0h1m18 0h1m-39 1h6m1 0h1m1 0h5m5 0h1m2 0h4m7 0h5m4 0h6m-49 1h1m7 0h1m13 0h1m4 0h1m6 0h1m7 0h1m-43 1h1m7 0h1m12 0h1m6 0h1m5 0h1m7 0h1m-43 1h1m7 0h2m29 0h1m2 0h1m-43 1h1m7 0h1m1 0h5m19 0h5m3 0h1m-43 1h1m7 0h1m25 0h1m7 0h1m-43 1h1m33 0h1m7 0h1m-77 1h1m7 0h1" />
  <defs>
    <view id = "ovrwrld11" viewBox = "34 33.5 15 15" />
  </defs>
</svg>

